<mxfile host="app.diagrams.net" modified="2023-05-11T00:45:53.845Z" agent="Mozilla/5.0 (Windows NT 10.0; Win64; x64) AppleWebKit/537.36 (KHTML, like Gecko) Chrome/113.0.0.0 Safari/537.36 Edg/113.0.1774.35" etag="Zg-flqxCYCaCxCE6F_R7" version="21.2.9" type="device">
  <diagram name="Página-1" id="_fUJFGWVS1dpj6mFOcnl">
    <mxGraphModel dx="2348" dy="1058" grid="0" gridSize="10" guides="1" tooltips="1" connect="1" arrows="1" fold="1" page="1" pageScale="1" pageWidth="10000" pageHeight="10000" math="0" shadow="0">
      <root>
        <mxCell id="0" />
        <mxCell id="1" parent="0" />
        <mxCell id="ecCcU_BmL51Hk2295aaJ-1" value="" style="ellipse;whiteSpace=wrap;html=1;aspect=fixed;" vertex="1" parent="1">
          <mxGeometry x="868" y="460" width="69" height="69" as="geometry" />
        </mxCell>
        <mxCell id="ecCcU_BmL51Hk2295aaJ-2" value="" style="ellipse;whiteSpace=wrap;html=1;aspect=fixed;" vertex="1" parent="1">
          <mxGeometry x="955" y="460" width="69" height="69" as="geometry" />
        </mxCell>
        <mxCell id="ecCcU_BmL51Hk2295aaJ-3" value="" style="ellipse;whiteSpace=wrap;html=1;aspect=fixed;" vertex="1" parent="1">
          <mxGeometry x="1042" y="460" width="69" height="69" as="geometry" />
        </mxCell>
        <mxCell id="ecCcU_BmL51Hk2295aaJ-4" value="" style="ellipse;whiteSpace=wrap;html=1;aspect=fixed;" vertex="1" parent="1">
          <mxGeometry x="1129" y="460" width="69" height="69" as="geometry" />
        </mxCell>
        <mxCell id="ecCcU_BmL51Hk2295aaJ-9" value="" style="ellipse;whiteSpace=wrap;html=1;aspect=fixed;" vertex="1" parent="1">
          <mxGeometry x="868" y="550" width="69" height="69" as="geometry" />
        </mxCell>
        <mxCell id="ecCcU_BmL51Hk2295aaJ-10" value="" style="ellipse;whiteSpace=wrap;html=1;aspect=fixed;" vertex="1" parent="1">
          <mxGeometry x="955" y="550" width="69" height="69" as="geometry" />
        </mxCell>
        <mxCell id="ecCcU_BmL51Hk2295aaJ-11" value="" style="ellipse;whiteSpace=wrap;html=1;aspect=fixed;" vertex="1" parent="1">
          <mxGeometry x="1042" y="550" width="69" height="69" as="geometry" />
        </mxCell>
        <mxCell id="ecCcU_BmL51Hk2295aaJ-12" value="" style="ellipse;whiteSpace=wrap;html=1;aspect=fixed;" vertex="1" parent="1">
          <mxGeometry x="1129" y="550" width="69" height="69" as="geometry" />
        </mxCell>
        <mxCell id="ecCcU_BmL51Hk2295aaJ-13" value="" style="rounded=1;whiteSpace=wrap;html=1;" vertex="1" parent="1">
          <mxGeometry x="947" y="648" width="164" height="89" as="geometry" />
        </mxCell>
        <mxCell id="ecCcU_BmL51Hk2295aaJ-14" value="&lt;font style=&quot;font-size: 24px;&quot;&gt;Alineación&lt;/font&gt;" style="text;html=1;strokeColor=none;fillColor=none;align=center;verticalAlign=middle;whiteSpace=wrap;rounded=0;" vertex="1" parent="1">
          <mxGeometry x="980" y="672" width="98" height="46" as="geometry" />
        </mxCell>
        <mxCell id="ecCcU_BmL51Hk2295aaJ-15" value="" style="ellipse;whiteSpace=wrap;html=1;aspect=fixed;" vertex="1" parent="1">
          <mxGeometry x="878" y="814" width="69" height="69" as="geometry" />
        </mxCell>
        <mxCell id="ecCcU_BmL51Hk2295aaJ-16" value="" style="ellipse;whiteSpace=wrap;html=1;aspect=fixed;" vertex="1" parent="1">
          <mxGeometry x="965" y="814" width="69" height="69" as="geometry" />
        </mxCell>
        <mxCell id="ecCcU_BmL51Hk2295aaJ-17" value="" style="ellipse;whiteSpace=wrap;html=1;aspect=fixed;" vertex="1" parent="1">
          <mxGeometry x="1052" y="814" width="69" height="69" as="geometry" />
        </mxCell>
        <mxCell id="ecCcU_BmL51Hk2295aaJ-18" value="" style="ellipse;whiteSpace=wrap;html=1;aspect=fixed;" vertex="1" parent="1">
          <mxGeometry x="1139" y="814" width="69" height="69" as="geometry" />
        </mxCell>
        <mxCell id="ecCcU_BmL51Hk2295aaJ-19" value="" style="ellipse;whiteSpace=wrap;html=1;aspect=fixed;" vertex="1" parent="1">
          <mxGeometry x="878" y="904" width="69" height="69" as="geometry" />
        </mxCell>
        <mxCell id="ecCcU_BmL51Hk2295aaJ-20" value="" style="ellipse;whiteSpace=wrap;html=1;aspect=fixed;" vertex="1" parent="1">
          <mxGeometry x="965" y="904" width="69" height="69" as="geometry" />
        </mxCell>
        <mxCell id="ecCcU_BmL51Hk2295aaJ-21" value="" style="ellipse;whiteSpace=wrap;html=1;aspect=fixed;" vertex="1" parent="1">
          <mxGeometry x="1052" y="904" width="69" height="69" as="geometry" />
        </mxCell>
        <mxCell id="ecCcU_BmL51Hk2295aaJ-22" value="" style="ellipse;whiteSpace=wrap;html=1;aspect=fixed;" vertex="1" parent="1">
          <mxGeometry x="1139" y="904" width="69" height="69" as="geometry" />
        </mxCell>
        <mxCell id="ecCcU_BmL51Hk2295aaJ-23" value="" style="rounded=1;whiteSpace=wrap;html=1;" vertex="1" parent="1">
          <mxGeometry x="957" y="1002" width="164" height="89" as="geometry" />
        </mxCell>
        <mxCell id="ecCcU_BmL51Hk2295aaJ-24" value="&lt;span style=&quot;font-size: 24px;&quot;&gt;Touch Up&lt;/span&gt;" style="text;html=1;strokeColor=none;fillColor=none;align=center;verticalAlign=middle;whiteSpace=wrap;rounded=0;" vertex="1" parent="1">
          <mxGeometry x="990" y="1026" width="98" height="46" as="geometry" />
        </mxCell>
        <mxCell id="ecCcU_BmL51Hk2295aaJ-35" value="" style="group;rotation=-90;" vertex="1" connectable="0" parent="1">
          <mxGeometry x="377" y="1226" width="330" height="277" as="geometry" />
        </mxCell>
        <mxCell id="ecCcU_BmL51Hk2295aaJ-25" value="" style="ellipse;whiteSpace=wrap;html=1;aspect=fixed;rotation=-90;" vertex="1" parent="ecCcU_BmL51Hk2295aaJ-35">
          <mxGeometry x="26" y="234" width="69" height="69" as="geometry" />
        </mxCell>
        <mxCell id="ecCcU_BmL51Hk2295aaJ-26" value="" style="ellipse;whiteSpace=wrap;html=1;aspect=fixed;rotation=-90;" vertex="1" parent="ecCcU_BmL51Hk2295aaJ-35">
          <mxGeometry x="27" y="147" width="69" height="69" as="geometry" />
        </mxCell>
        <mxCell id="ecCcU_BmL51Hk2295aaJ-27" value="" style="ellipse;whiteSpace=wrap;html=1;aspect=fixed;rotation=-90;" vertex="1" parent="ecCcU_BmL51Hk2295aaJ-35">
          <mxGeometry x="26" y="60" width="69" height="69" as="geometry" />
        </mxCell>
        <mxCell id="ecCcU_BmL51Hk2295aaJ-28" value="" style="ellipse;whiteSpace=wrap;html=1;aspect=fixed;rotation=-90;" vertex="1" parent="ecCcU_BmL51Hk2295aaJ-35">
          <mxGeometry x="27" y="-27" width="69" height="69" as="geometry" />
        </mxCell>
        <mxCell id="ecCcU_BmL51Hk2295aaJ-29" value="" style="ellipse;whiteSpace=wrap;html=1;aspect=fixed;rotation=-90;" vertex="1" parent="ecCcU_BmL51Hk2295aaJ-35">
          <mxGeometry x="116" y="234" width="69" height="69" as="geometry" />
        </mxCell>
        <mxCell id="ecCcU_BmL51Hk2295aaJ-30" value="" style="ellipse;whiteSpace=wrap;html=1;aspect=fixed;rotation=-90;" vertex="1" parent="ecCcU_BmL51Hk2295aaJ-35">
          <mxGeometry x="117" y="147" width="69" height="69" as="geometry" />
        </mxCell>
        <mxCell id="ecCcU_BmL51Hk2295aaJ-31" value="" style="ellipse;whiteSpace=wrap;html=1;aspect=fixed;rotation=-90;" vertex="1" parent="ecCcU_BmL51Hk2295aaJ-35">
          <mxGeometry x="116" y="60" width="69" height="69" as="geometry" />
        </mxCell>
        <mxCell id="ecCcU_BmL51Hk2295aaJ-32" value="" style="ellipse;whiteSpace=wrap;html=1;aspect=fixed;rotation=-90;" vertex="1" parent="ecCcU_BmL51Hk2295aaJ-35">
          <mxGeometry x="117" y="-26" width="69" height="69" as="geometry" />
        </mxCell>
        <mxCell id="ecCcU_BmL51Hk2295aaJ-33" value="" style="rounded=1;whiteSpace=wrap;html=1;rotation=-90;" vertex="1" parent="ecCcU_BmL51Hk2295aaJ-35">
          <mxGeometry x="177" y="98" width="164" height="89" as="geometry" />
        </mxCell>
        <mxCell id="ecCcU_BmL51Hk2295aaJ-34" value="&lt;font style=&quot;font-size: 24px;&quot;&gt;Bahias&lt;br&gt;&lt;/font&gt;" style="text;html=1;strokeColor=none;fillColor=none;align=center;verticalAlign=middle;whiteSpace=wrap;rounded=0;rotation=-90;" vertex="1" parent="ecCcU_BmL51Hk2295aaJ-35">
          <mxGeometry x="213" y="120" width="98" height="46" as="geometry" />
        </mxCell>
        <mxCell id="ecCcU_BmL51Hk2295aaJ-37" value="" style="ellipse;whiteSpace=wrap;html=1;aspect=fixed;" vertex="1" parent="1">
          <mxGeometry x="908" y="1552" width="69" height="69" as="geometry" />
        </mxCell>
        <mxCell id="ecCcU_BmL51Hk2295aaJ-38" value="" style="ellipse;whiteSpace=wrap;html=1;aspect=fixed;" vertex="1" parent="1">
          <mxGeometry x="995" y="1552" width="69" height="69" as="geometry" />
        </mxCell>
        <mxCell id="ecCcU_BmL51Hk2295aaJ-39" value="" style="ellipse;whiteSpace=wrap;html=1;aspect=fixed;" vertex="1" parent="1">
          <mxGeometry x="1082" y="1552" width="69" height="69" as="geometry" />
        </mxCell>
        <mxCell id="ecCcU_BmL51Hk2295aaJ-40" value="" style="ellipse;whiteSpace=wrap;html=1;aspect=fixed;" vertex="1" parent="1">
          <mxGeometry x="1169" y="1552" width="69" height="69" as="geometry" />
        </mxCell>
        <mxCell id="ecCcU_BmL51Hk2295aaJ-41" value="" style="ellipse;whiteSpace=wrap;html=1;aspect=fixed;" vertex="1" parent="1">
          <mxGeometry x="908" y="1642" width="69" height="69" as="geometry" />
        </mxCell>
        <mxCell id="ecCcU_BmL51Hk2295aaJ-42" value="" style="ellipse;whiteSpace=wrap;html=1;aspect=fixed;" vertex="1" parent="1">
          <mxGeometry x="995" y="1642" width="69" height="69" as="geometry" />
        </mxCell>
        <mxCell id="ecCcU_BmL51Hk2295aaJ-43" value="" style="ellipse;whiteSpace=wrap;html=1;aspect=fixed;" vertex="1" parent="1">
          <mxGeometry x="1082" y="1642" width="69" height="69" as="geometry" />
        </mxCell>
        <mxCell id="ecCcU_BmL51Hk2295aaJ-44" value="" style="ellipse;whiteSpace=wrap;html=1;aspect=fixed;" vertex="1" parent="1">
          <mxGeometry x="1169" y="1642" width="69" height="69" as="geometry" />
        </mxCell>
        <mxCell id="ecCcU_BmL51Hk2295aaJ-45" value="" style="rounded=1;whiteSpace=wrap;html=1;" vertex="1" parent="1">
          <mxGeometry x="987" y="1740" width="164" height="89" as="geometry" />
        </mxCell>
        <mxCell id="ecCcU_BmL51Hk2295aaJ-46" value="&lt;font style=&quot;font-size: 24px;&quot;&gt;CRC&lt;br&gt;&lt;/font&gt;" style="text;html=1;strokeColor=none;fillColor=none;align=center;verticalAlign=middle;whiteSpace=wrap;rounded=0;" vertex="1" parent="1">
          <mxGeometry x="1020" y="1764" width="98" height="46" as="geometry" />
        </mxCell>
        <mxCell id="ecCcU_BmL51Hk2295aaJ-47" value="" style="endArrow=classic;html=1;rounded=0;strokeColor=#000000;" edge="1" parent="1">
          <mxGeometry width="50" height="50" relative="1" as="geometry">
            <mxPoint x="771" y="461" as="sourcePoint" />
            <mxPoint x="881" y="1652" as="targetPoint" />
            <Array as="points">
              <mxPoint x="771" y="1152" />
              <mxPoint x="261" y="1152" />
              <mxPoint x="261" y="1652" />
            </Array>
          </mxGeometry>
        </mxCell>
        <mxCell id="ecCcU_BmL51Hk2295aaJ-49" value="" style="endArrow=none;dashed=1;html=1;rounded=0;" edge="1" parent="1">
          <mxGeometry width="50" height="50" relative="1" as="geometry">
            <mxPoint x="1269" y="1629" as="sourcePoint" />
            <mxPoint x="1258" y="468" as="targetPoint" />
          </mxGeometry>
        </mxCell>
        <mxCell id="ecCcU_BmL51Hk2295aaJ-51" value="" style="endArrow=classic;html=1;rounded=0;" edge="1" parent="1">
          <mxGeometry width="50" height="50" relative="1" as="geometry">
            <mxPoint x="344" y="632" as="sourcePoint" />
            <mxPoint x="459" y="632" as="targetPoint" />
          </mxGeometry>
        </mxCell>
        <mxCell id="ecCcU_BmL51Hk2295aaJ-53" value="" style="endArrow=none;dashed=1;html=1;rounded=0;" edge="1" parent="1">
          <mxGeometry width="50" height="50" relative="1" as="geometry">
            <mxPoint x="340" y="725" as="sourcePoint" />
            <mxPoint x="468" y="725" as="targetPoint" />
          </mxGeometry>
        </mxCell>
        <mxCell id="ecCcU_BmL51Hk2295aaJ-54" value="&lt;font style=&quot;font-size: 36px;&quot;&gt;90%&lt;/font&gt;" style="text;html=1;strokeColor=none;fillColor=none;align=center;verticalAlign=middle;whiteSpace=wrap;rounded=0;" vertex="1" parent="1">
          <mxGeometry x="375" y="573" width="60" height="30" as="geometry" />
        </mxCell>
        <mxCell id="ecCcU_BmL51Hk2295aaJ-56" value="&lt;font style=&quot;font-size: 36px;&quot;&gt;10%&lt;/font&gt;" style="text;html=1;strokeColor=none;fillColor=none;align=center;verticalAlign=middle;whiteSpace=wrap;rounded=0;" vertex="1" parent="1">
          <mxGeometry x="377" y="675" width="60" height="30" as="geometry" />
        </mxCell>
        <mxCell id="ecCcU_BmL51Hk2295aaJ-57" value="" style="endArrow=none;html=1;rounded=0;" edge="1" parent="1">
          <mxGeometry width="50" height="50" relative="1" as="geometry">
            <mxPoint x="1650" y="721" as="sourcePoint" />
            <mxPoint x="3074" y="721" as="targetPoint" />
            <Array as="points">
              <mxPoint x="2054" y="721" />
              <mxPoint x="2242" y="839" />
              <mxPoint x="2534" y="835" />
              <mxPoint x="2667" y="721" />
            </Array>
          </mxGeometry>
        </mxCell>
        <mxCell id="ecCcU_BmL51Hk2295aaJ-58" value="" style="endArrow=none;html=1;rounded=0;" edge="1" parent="1">
          <mxGeometry width="50" height="50" relative="1" as="geometry">
            <mxPoint x="1622" y="1029" as="sourcePoint" />
            <mxPoint x="3090" y="1029" as="targetPoint" />
            <Array as="points">
              <mxPoint x="2035" y="1029" />
              <mxPoint x="2243" y="957" />
              <mxPoint x="2547" y="957" />
              <mxPoint x="2702" y="1035" />
            </Array>
          </mxGeometry>
        </mxCell>
        <mxCell id="ecCcU_BmL51Hk2295aaJ-59" value="&lt;span style=&quot;font-size: 36px;&quot;&gt;Alineacion&amp;nbsp;&lt;/span&gt;" style="text;html=1;strokeColor=none;fillColor=none;align=center;verticalAlign=middle;whiteSpace=wrap;rounded=0;" vertex="1" parent="1">
          <mxGeometry x="1575" y="619" width="60" height="30" as="geometry" />
        </mxCell>
        <mxCell id="ecCcU_BmL51Hk2295aaJ-60" value="&lt;span style=&quot;font-size: 36px;&quot;&gt;Touch Up&lt;/span&gt;" style="text;html=1;strokeColor=none;fillColor=none;align=center;verticalAlign=middle;whiteSpace=wrap;rounded=0;" vertex="1" parent="1">
          <mxGeometry x="1912" y="637" width="60" height="30" as="geometry" />
        </mxCell>
        <mxCell id="ecCcU_BmL51Hk2295aaJ-61" value="&lt;span style=&quot;font-size: 36px;&quot;&gt;Bahias&lt;/span&gt;" style="text;html=1;strokeColor=none;fillColor=none;align=center;verticalAlign=middle;whiteSpace=wrap;rounded=0;" vertex="1" parent="1">
          <mxGeometry x="2341" y="695" width="60" height="30" as="geometry" />
        </mxCell>
        <mxCell id="ecCcU_BmL51Hk2295aaJ-63" value="&lt;span style=&quot;font-size: 36px;&quot;&gt;CRC&lt;/span&gt;" style="text;html=1;strokeColor=none;fillColor=none;align=center;verticalAlign=middle;whiteSpace=wrap;rounded=0;" vertex="1" parent="1">
          <mxGeometry x="2837" y="619" width="60" height="30" as="geometry" />
        </mxCell>
        <mxCell id="ecCcU_BmL51Hk2295aaJ-65" value="" style="endArrow=none;html=1;rounded=0;" edge="1" parent="1">
          <mxGeometry width="50" height="50" relative="1" as="geometry">
            <mxPoint x="1837" y="1091" as="sourcePoint" />
            <mxPoint x="1837" y="659" as="targetPoint" />
          </mxGeometry>
        </mxCell>
        <mxCell id="ecCcU_BmL51Hk2295aaJ-66" value="" style="endArrow=none;html=1;rounded=0;" edge="1" parent="1">
          <mxGeometry width="50" height="50" relative="1" as="geometry">
            <mxPoint x="2244" y="1104" as="sourcePoint" />
            <mxPoint x="2244" y="672" as="targetPoint" />
          </mxGeometry>
        </mxCell>
        <mxCell id="ecCcU_BmL51Hk2295aaJ-67" value="" style="endArrow=none;html=1;rounded=0;" edge="1" parent="1">
          <mxGeometry width="50" height="50" relative="1" as="geometry">
            <mxPoint x="2541" y="1080" as="sourcePoint" />
            <mxPoint x="2541" y="648" as="targetPoint" />
          </mxGeometry>
        </mxCell>
      </root>
    </mxGraphModel>
  </diagram>
</mxfile>
